<svg width="800" height="800" xmlns="http://www.w3.org/2000/svg">
 <!-- Created with Method Draw - http://github.com/duopixel/Method-Draw/ -->

 <g>
  <title>background</title>
  <rect fill="none" id="canvas_background" height="802" width="802" y="-1" x="-1"/>
  <g display="none" overflow="visible" y="0" x="0" height="100%" width="100%" id="canvasGrid">
   <rect fill="url(#gridpattern)" stroke-width="0" y="0" x="0" height="100%" width="100%"/>
  </g>
 </g>
 <g>
  <title>Layer 1</title>
  <g stroke="null" id="svg_5">
   <path stroke="null" id="svg_4" d="m160.44999,506.17497l-119.77499,0c-22.04608,0 -39.925,17.87891 -39.925,39.925l0,119.77499c0,22.04608 17.87891,39.925 39.925,39.925l119.77499,0c22.04608,0 39.925,-17.87891 39.925,-39.925l0,-119.77499c0,-22.04608 -17.87891,-39.925 -39.925,-39.925zm-29.94375,-99.81249l239.54998,0l0,59.8875l59.8875,0l0,-59.8875l239.54998,0l0,59.8875l59.8875,0l0,-71.85252c0,-26.41288 -21.49712,-47.92247 -47.92247,-47.92247l-251.51501,0l0,-79.84999l49.90625,0c22.04608,0 39.925,-17.87891 39.925,-39.925l0,-119.77499c0,-22.04608 -17.87891,-39.925 -39.925,-39.925l-159.69999,0c-22.04608,0 -39.925,17.87891 -39.925,39.925l0,119.77499c0,22.04608 17.87891,39.925 39.925,39.925l49.90625,0l0,79.84999l-251.51501,0c-26.42536,0 -47.92247,21.49712 -47.92247,47.92247l0,71.85252l59.8875,0l0,-59.8875zm329.38123,99.81249l-119.77499,0c-22.04608,0 -39.925,17.87891 -39.925,39.925l0,119.77499c0,22.04608 17.87891,39.925 39.925,39.925l119.77499,0c22.04608,0 39.925,-17.87891 39.925,-39.925l0,-119.77499c0,-22.04608 -17.87891,-39.925 -39.925,-39.925zm299.43748,0l-119.77499,0c-22.04608,0 -39.925,17.87891 -39.925,39.925l0,119.77499c0,22.04608 17.87891,39.925 39.925,39.925l119.77499,0c22.04608,0 39.925,-17.87891 39.925,-39.925l0,-119.77499c0,-22.04608 -17.87891,-39.925 -39.925,-39.925z" fill="currentColor"/>
  </g>
 </g>
</svg>